<svg width="71" height="71" xmlns="http://www.w3.org/2000/svg">

 <g>
  <title>background</title>
  <rect fill="none" id="canvas_background" height="402" width="582" y="-1" x="-1"/>
 </g>
 <g>
  <title>Layer 1</title>
  <path id="svg_1" fill-rule="nonzero" fill="#bebebe" d="m34.16797,0.07031c-0.875,0.23047 -1.51563,0.83985 -1.80078,1.70313c-0.07031,0.21484 -0.08594,0.48047 -0.10156,2.03906l-0.02735,1.79688l-0.57812,0.12109c-2.55469,0.53125 -4.875,1.63281 -6.90625,3.28516c-2.94532,2.39453 -4.96094,5.77734 -5.67188,9.51171c-0.25,1.32032 -0.23437,0.89063 -0.26172,9.07422l-0.02734,7.56641l-0.1875,0.33984c-0.22656,0.41407 -0.42969,0.70313 -0.98047,1.35938c-0.72656,0.8789 -1.46094,1.63672 -4.66797,4.86719c-3.83203,3.85546 -4.77344,4.85937 -5.93359,6.30078c-1.14453,1.42968 -1.65235,2.38281 -1.65235,3.09375c0.00391,1.1875 0.76563,2.27343 2.35157,3.32812c2.67578,1.78516 7.60937,3.1836 14.04297,3.98047c3.38281,0.42188 6.38671,0.62109 10.79687,0.71875c4.85156,0.10938 10.04688,-0.10156 14.45313,-0.58594c7.1914,-0.78906 12.63671,-2.30468 15.47265,-4.30078c0.48438,-0.33984 1.10938,-0.92187 1.39453,-1.30469c0.40625,-0.53515 0.67969,-1.26171 0.6836,-1.82421c0,-0.62891 -0.38282,-1.40625 -1.28907,-2.61719c-1.14062,-1.51953 -2.16406,-2.61719 -6.79296,-7.27735c-1.54688,-1.5625 -3.06641,-3.10937 -3.36719,-3.4375c-0.97656,-1.07031 -1.65625,-1.94921 -1.88281,-2.4375l-0.09375,-0.20312l-0.02344,-7.52344c-0.02344,-7.40234 -0.02735,-7.53125 -0.1211,-8.1875c-0.52734,-3.68359 -2.04296,-6.75781 -4.57812,-9.30078c-1.33594,-1.33594 -2.59375,-2.24609 -4.26172,-3.07422c-1.30469,-0.64844 -2.65625,-1.11719 -3.9375,-1.36328l-0.54297,-0.10547l0,-1.60547c0,-1.85547 -0.02734,-2.08593 -0.3164,-2.67187c-0.32032,-0.64453 -0.84375,-1.0625 -1.57422,-1.2461c-0.41797,-0.10937 -1.24219,-0.11718 -1.61719,-0.01953zm0,0"/>
  <path id="svg_2" fill-rule="nonzero" fill="#bebebe" d="m30.20313,62.40625c-0.48829,0.78125 -0.6211,1.24609 -0.6211,2.16016c0,1.43359 0.49219,2.66015 1.47656,3.69531c1.60157,1.6875 4.10547,2.15625 6.19922,1.16797c1.54297,-0.73438 2.65235,-2.14063 2.99219,-3.80078c0.13281,-0.63672 0.13281,-1.5586 0.00391,-2.05469c-0.09766,-0.37109 -0.3086,-0.82422 -0.57032,-1.23047l-0.16796,-0.26172l-9.11329,0l-0.19921,0.32422zm0,0"/>
  <polyline stroke-linecap="round" id="svg_4" points="30.51636370252038,32.308425741603884 30.51636370252038,32.308425741603884 " fill-opacity="0" stroke-opacity="null" stroke-width="null" stroke="null" fill="none"/>
 </g>
</svg>